<svg xmlns="http://www.w3.org/2000/svg" version="1.1" xmlns:xlink="http://www.w3.org/1999/xlink" xmlns:svgjs="http://svgjs.dev/svgjs" width="1500" height="598" viewBox="0 0 1500 598"><g transform="matrix(1,0,0,1,-0.9090909090909918,0.1758063606770861)"><svg viewBox="0 0 396 158" data-background-color="#181818" preserveAspectRatio="xMidYMid meet" height="598" width="1500" xmlns="http://www.w3.org/2000/svg" xmlns:xlink="http://www.w3.org/1999/xlink"><g id="tight-bounds" transform="matrix(1,0,0,1,0.2400000000000091,-0.04645051001166678)"><svg viewBox="0 0 395.52 158.09290102002333" height="158.09290102002333" width="395.52"><g><svg viewBox="0 0 502.8658433558059 200.99999999999997" height="158.09290102002333" width="395.52"><g><rect width="8.377764511242605" height="200.99999999999997" x="189.24314866704847" y="0" fill="#007efa" opacity="1" stroke-width="0" stroke="transparent" fill-opacity="1" class="rect-qz-0" data-fill-palette-color="primary" rx="1%" id="qz-0" data-palette-color="#007efa"></rect></g><g transform="matrix(1,0,0,1,219.55223388835026,0.4999999999999858)"><svg viewBox="0 0 283.31360946745565 200" height="200" width="283.31360946745565"><g id="textblocktransform"><svg viewBox="0 0 283.31360946745565 200" height="200" width="283.31360946745565" id="textblock"><g><svg viewBox="0 0 283.31360946745565 200" height="200" width="283.31360946745565"><g transform="matrix(1,0,0,1,0,0)"><svg width="283.31360946745565" viewBox="3.250000000000008 -37.1 120.44999999999999 79.9" height="200" data-palette-color="#007efa"><svg></svg><svg></svg><g class="wordmark-text-0" data-fill-palette-color="primary" id="text-0"><path d="M12.2-34.85l6.3 19.25h0.5l7.3-19 6.9 0.2 0.2 21.5 0.95 12.9h-6.75l0.25-13-0.55-13.15-6 16.55-6.15 0.3-5.6-16.85-0.45 13.15 0.35 13h-6.2l0.7-12.15 0.3-21.45zM38.75-10.45c0-4.267 1.15-7.883 3.45-10.85 2.3-2.967 4.993-4.45 8.08-4.45 3.08 0 5.48 1 7.2 3 1.713 2 2.57 4.65 2.57 7.95v0c0 4.4-1.107 8.057-3.32 10.97-2.22 2.92-5.013 4.38-8.38 4.38v0c-2.767 0-5.057-1.043-6.87-3.13-1.82-2.08-2.73-4.703-2.73-7.87zM54.45-12.2v0c0-4.833-1.65-7.25-4.95-7.25v0c-3.433 0-5.15 2.267-5.15 6.8v0c0 2.367 0.483 4.217 1.45 5.55 0.967 1.333 2.243 2 3.83 2 1.58 0 2.78-0.61 3.6-1.83 0.813-1.213 1.22-2.97 1.22-5.27zM71-14.4l1.85 8.15h0.65l1.65-6.85 2.7-12.35 6.2 0.75-3.75 12.4-3.15 11.7-8.55 0.75-2.95-12.15-3.6-12.15 6.8-1.25zM87.35-24.2l6.7-1.25-0.6 12.45 0.55 11.75-6.7 1.25 0.6-12.15zM87-32.77c0-1.12 0.433-2.12 1.3-3 0.867-0.887 1.867-1.33 3-1.33 1.133 0 2 0.307 2.6 0.92 0.6 0.62 0.9 1.547 0.9 2.78 0 1.233-0.423 2.29-1.27 3.17-0.853 0.887-1.837 1.33-2.95 1.33-1.12 0-1.997-0.367-2.63-1.1-0.633-0.733-0.95-1.657-0.95-2.77zM108.55-5.1v0c0.967 0 1.983-0.25 3.05-0.75 1.067-0.5 1.9-1 2.5-1.5v0l0.9-0.75 2.3 2.8c-0.333 0.567-0.85 1.217-1.55 1.95-0.7 0.733-1.407 1.357-2.12 1.87-0.72 0.52-1.67 0.987-2.85 1.4-1.187 0.42-2.413 0.63-3.68 0.63v0c-2.7 0-4.9-1.027-6.6-3.08-1.7-2.047-2.55-4.687-2.55-7.92v0c0-4.067 1.183-7.633 3.55-10.7 2.367-3.067 5.133-4.6 8.3-4.6v0c2.433 0 4.327 0.683 5.68 2.05 1.347 1.367 2.02 3.283 2.02 5.75v0c0 1.467-0.25 3.133-0.75 5v0l-1 1.05-12.5 1.15c0.567 3.767 2.333 5.65 5.3 5.65zM108.55-20.6v0c-1.467 0-2.7 0.593-3.7 1.78-1 1.18-1.583 2.687-1.75 4.52v0l8.5-1.05c0.1-0.767 0.15-1.4 0.15-1.9v0c0-2.233-1.067-3.35-3.2-3.35z" fill="#007efa" fill-rule="nonzero" stroke="none" stroke-width="1" stroke-linecap="butt" stroke-linejoin="miter" stroke-miterlimit="10" stroke-dasharray="" stroke-dashoffset="0" font-family="none" font-weight="none" font-size="none" text-anchor="none" style="mix-blend-mode: normal" data-fill-palette-color="primary" opacity="1"></path><path transform="translate(0,42.25)" d="M22.1-34.5l-0.55 5.35h-10.65l-0.3 9.2h9.55l-0.55 5.3h-9.15l-0.05 1.65 0.6 13h-7l0.6-12.15-0.6-22.35zM24.45-24.15v0l6.05-1.3c0.3 2.567 0.5 5 0.6 7.3v0c3.033-4.7 5.883-7.05 8.55-7.05v0l-0.55 7.8c-1.933 0-3.457 0.173-4.57 0.52-1.12 0.353-2.263 1.047-3.43 2.08v0 1.8l0.55 11.75-6.7 1.25 0.6-12.15c-0.133-4.467-0.5-8.467-1.1-12zM42.8-24.2l6.7-1.25-0.6 12.45 0.55 11.75-6.7 1.25 0.6-12.15zM42.45-32.77c0-1.12 0.433-2.12 1.3-3 0.867-0.887 1.867-1.33 3-1.33 1.133 0 2 0.307 2.6 0.92 0.6 0.62 0.9 1.547 0.9 2.78 0 1.233-0.423 2.29-1.27 3.17-0.853 0.887-1.837 1.33-2.95 1.33-1.12 0-1.997-0.367-2.63-1.1-0.633-0.733-0.95-1.657-0.95-2.77zM64-5.1v0c0.967 0 1.983-0.25 3.05-0.75 1.067-0.5 1.9-1 2.5-1.5v0l0.9-0.75 2.3 2.8c-0.333 0.567-0.85 1.217-1.55 1.95-0.7 0.733-1.407 1.357-2.12 1.87-0.72 0.52-1.67 0.987-2.85 1.4-1.187 0.42-2.413 0.63-3.68 0.63v0c-2.7 0-4.9-1.027-6.6-3.08-1.7-2.047-2.55-4.687-2.55-7.92v0c0-4.067 1.183-7.633 3.55-10.7 2.367-3.067 5.133-4.6 8.3-4.6v0c2.433 0 4.327 0.683 5.68 2.05 1.347 1.367 2.02 3.283 2.02 5.75v0c0 1.467-0.25 3.133-0.75 5v0l-1 1.05-12.5 1.15c0.567 3.767 2.333 5.65 5.3 5.65zM64-20.6v0c-1.467 0-2.7 0.593-3.7 1.78-1 1.18-1.583 2.687-1.75 4.52v0l8.5-1.05c0.1-0.767 0.15-1.4 0.15-1.9v0c0-2.233-1.067-3.35-3.2-3.35zM91.8-12.65c0-2.3-0.2-3.833-0.6-4.6-0.4-0.767-1.333-1.15-2.8-1.15-1.467 0-3.133 0.583-5 1.75v0 3.65l0.55 11.75-6.7 1.25 0.6-12.15c-0.133-4.467-0.5-8.467-1.1-12v0l6.05-1.3c0.233 1.933 0.4 3.817 0.5 5.65v0c0.5-0.667 1.067-1.327 1.7-1.98 0.633-0.647 1.633-1.38 3-2.2 1.367-0.813 2.81-1.22 4.33-1.22 1.513 0 2.787 0.59 3.82 1.77 1.033 1.187 1.55 2.797 1.55 4.83v0l-0.3 5.6 0.55 12-6.75 1.25zM116.65-4.9v0c-2.6 3.267-4.85 4.9-6.75 4.9v0c-2.367 0-4.307-0.967-5.82-2.9-1.52-1.933-2.28-4.417-2.28-7.45v0c0-4.167 1.16-7.683 3.48-10.55 2.313-2.867 5.153-4.3 8.52-4.3v0l2.8 0.4v-0.95l-0.6-11.7 6.85-1.25-0.65 25.7v4.4c0 2 0.5 4.3 1.5 6.9v0l-5.4 2.25c-0.967-2-1.517-3.817-1.65-5.45zM107.4-12.95c0 2.133 0.393 3.8 1.18 5 0.78 1.2 1.913 1.8 3.4 1.8 1.48 0 3.02-0.6 4.62-1.8v0-10.8c-2-0.4-3.483-0.6-4.45-0.6v0c-1.5 0-2.667 0.533-3.5 1.6-0.833 1.067-1.25 2.667-1.25 4.8z" fill="#007efa" fill-rule="nonzero" stroke="none" stroke-width="1" stroke-linecap="butt" stroke-linejoin="miter" stroke-miterlimit="10" stroke-dasharray="" stroke-dashoffset="0" font-family="none" font-weight="none" font-size="none" text-anchor="none" style="mix-blend-mode: normal" data-fill-palette-color="primary" opacity="1"></path></g></svg></g></svg></g></svg></g></svg></g><g transform="matrix(1,0,0,1,0,0.4999999999999858)"><svg viewBox="0 0 167.3118279569893 200" height="200" width="167.3118279569893"><g><svg xmlns="http://www.w3.org/2000/svg" xmlns:xlink="http://www.w3.org/1999/xlink" version="1.1" x="0" y="0" viewBox="21 21.100000000000005 38.9 46.499999999999986" enable-background="new 0 0 80 80" xml:space="preserve" height="200" width="167.3118279569893" class="icon-icon-0" data-fill-palette-color="accent" id="icon-0"><g fill="#ff890c" data-fill-palette-color="accent"><path fill="#ff890c" d="M40 67.6v-21l19.9 10.5L40 67.6zM42 49.9v14.4l13.6-7.2L42 49.9z" data-fill-palette-color="accent"></path></g><g fill="#ff890c" data-fill-palette-color="accent"><path fill="#ff890c" d="M35 54h-8.2c-2.7 0-5.8-2.5-5.8-5.8 0-2 3.2-4.1 4.1-4.5l8.9-3.5c0.6-0.1 0.8-0.2 0.8-1-0.9-1.1-4-5.1-4-8.4 0-5.4 3.6-9.7 8.1-9.7 4.5 0 8.1 4.3 8.1 9.7 0 3.4-3.3 7.5-4.2 8.5-0.1 0.9 0.1 0.9 0.6 1.1l8.9 3.5 0.4 0.2c2 1.5 3.5 3 3.5 4H54v0.2c0-0.6-1.8-2-2.5-2.5l-0.3-0.3-8.4-3.3c-2-0.7-2-2.2-1.8-3.5l0-0.3 0.2-0.2c1.1-1.2 3.9-4.9 3.9-7.4 0-4.1-2.8-7.7-6.1-7.7-3.3 0-6.1 3.5-6.1 7.7 0 2.6 2.7 6.2 3.7 7.4l0.2 0.3 0 0.4c0.1 1.9-0.6 2.9-2.3 3.3l-8.7 3.4c-1.1 0.5-2.9 2.1-2.9 2.7 0 2 2.1 3.8 3.8 3.8H35V54z" data-fill-palette-color="accent"></path></g></svg></g></svg></g></svg></g><defs></defs></svg><rect width="395.52" height="158.09290102002333" fill="none" stroke="none" visibility="hidden"></rect></g></svg></g></svg>